G04 #@! TF.FileFunction,Paste,Top*
%FSLAX46Y46*%
G04 Gerber Fmt 4.6, Leading zero omitted, Abs format (unit mm)*
G04 Created by KiCad (PCBNEW 4.0.7) date 06/28/18 00:34:14*
%MOMM*%
%LPD*%
G01*
G04 APERTURE LIST*
%ADD10C,0.100000*%
%ADD11R,0.750000X1.200000*%
%ADD12R,1.600000X3.000000*%
%ADD13R,1.200000X0.750000*%
%ADD14R,3.000000X1.600000*%
%ADD15R,0.900000X1.200000*%
%ADD16R,2.000000X0.600000*%
%ADD17R,1.200000X0.900000*%
%ADD18R,1.500000X0.600000*%
%ADD19R,1.300000X0.800000*%
%ADD20R,0.800000X1.300000*%
G04 APERTURE END LIST*
D10*
D11*
X85471000Y-104587000D03*
X85471000Y-106487000D03*
X100711000Y-106360000D03*
X100711000Y-104460000D03*
D12*
X159512000Y-108880000D03*
X159512000Y-104480000D03*
D13*
X101285000Y-110490000D03*
X103185000Y-110490000D03*
X84770000Y-112522000D03*
X82870000Y-112522000D03*
D11*
X93091000Y-117790000D03*
X93091000Y-115890000D03*
D13*
X124267000Y-56007000D03*
X122367000Y-56007000D03*
X101158000Y-117856000D03*
X103058000Y-117856000D03*
D11*
X148590000Y-90490000D03*
X148590000Y-92390000D03*
D13*
X116525000Y-111379000D03*
X118425000Y-111379000D03*
X96014000Y-67246500D03*
X97914000Y-67246500D03*
X96014000Y-65722500D03*
X97914000Y-65722500D03*
X133035000Y-111379000D03*
X134935000Y-111379000D03*
D14*
X138643000Y-103378000D03*
X143043000Y-103378000D03*
D15*
X149988000Y-88392000D03*
X153288000Y-88392000D03*
D16*
X135508000Y-64897000D03*
X135508000Y-66167000D03*
X135508000Y-67437000D03*
X135508000Y-68707000D03*
X135508000Y-69977000D03*
X135508000Y-71247000D03*
X135508000Y-72517000D03*
X135508000Y-73787000D03*
X135508000Y-75057000D03*
X135508000Y-76327000D03*
X135508000Y-77597000D03*
X135508000Y-78867000D03*
X144908000Y-78867000D03*
X144908000Y-77597000D03*
X144908000Y-76327000D03*
X144908000Y-75057000D03*
X144908000Y-73787000D03*
X144908000Y-72517000D03*
X144908000Y-71247000D03*
X144908000Y-69977000D03*
X144908000Y-68707000D03*
X144908000Y-67437000D03*
X144908000Y-66167000D03*
X144908000Y-64897000D03*
X135508000Y-83947000D03*
X135508000Y-85217000D03*
X135508000Y-86487000D03*
X135508000Y-87757000D03*
X135508000Y-89027000D03*
X135508000Y-90297000D03*
X135508000Y-91567000D03*
X135508000Y-92837000D03*
X135508000Y-94107000D03*
X135508000Y-95377000D03*
X135508000Y-96647000D03*
X135508000Y-97917000D03*
X144908000Y-97917000D03*
X144908000Y-96647000D03*
X144908000Y-95377000D03*
X144908000Y-94107000D03*
X144908000Y-92837000D03*
X144908000Y-91567000D03*
X144908000Y-90297000D03*
X144908000Y-89027000D03*
X144908000Y-87757000D03*
X144908000Y-86487000D03*
X144908000Y-85217000D03*
X144908000Y-83947000D03*
D13*
X82870000Y-115189000D03*
X84770000Y-115189000D03*
D15*
X93091000Y-110914000D03*
X93091000Y-113114000D03*
D17*
X103335000Y-114173000D03*
X101135000Y-114173000D03*
D15*
X79883000Y-115359000D03*
X79883000Y-117559000D03*
D17*
X84793000Y-117856000D03*
X82593000Y-117856000D03*
X152357000Y-90297000D03*
X150157000Y-90297000D03*
D15*
X77152000Y-66909000D03*
X77152000Y-69109000D03*
X77152000Y-64663500D03*
X77152000Y-62463500D03*
X148971000Y-98849000D03*
X148971000Y-101049000D03*
X145669000Y-101135000D03*
X145669000Y-103335000D03*
D17*
X147785000Y-106807000D03*
X145585000Y-106807000D03*
X153246000Y-106807000D03*
X151046000Y-106807000D03*
D15*
X136144000Y-103040000D03*
X136144000Y-105240000D03*
D17*
X147785000Y-109982000D03*
X145585000Y-109982000D03*
X153246000Y-109982000D03*
X151046000Y-109982000D03*
D18*
X153111000Y-72136000D03*
X153111000Y-70866000D03*
X153111000Y-69596000D03*
X153111000Y-68326000D03*
X153111000Y-67056000D03*
X153111000Y-65786000D03*
X153111000Y-73406000D03*
X153111000Y-74676000D03*
X153111000Y-75946000D03*
X153111000Y-77216000D03*
X162611000Y-77216000D03*
X162611000Y-75946000D03*
X162611000Y-74676000D03*
X162611000Y-73406000D03*
X162611000Y-72136000D03*
X162611000Y-70866000D03*
X162611000Y-69596000D03*
X162611000Y-68326000D03*
X162611000Y-67056000D03*
X162611000Y-65786000D03*
D19*
X156362000Y-86736000D03*
X156362000Y-88016000D03*
X156362000Y-89276000D03*
X156362000Y-90546000D03*
X156362000Y-91826000D03*
X156362000Y-93096000D03*
X156362000Y-94356000D03*
X156362000Y-95636000D03*
X162662000Y-95636000D03*
X162662000Y-94356000D03*
X162662000Y-93096000D03*
X162662000Y-91826000D03*
X162662000Y-90546000D03*
X162662000Y-89276000D03*
X162662000Y-88016000D03*
X162662000Y-86736000D03*
D20*
X86863000Y-94717000D03*
X88143000Y-94717000D03*
X89403000Y-94717000D03*
X90673000Y-94717000D03*
X91953000Y-94717000D03*
X93223000Y-94717000D03*
X94483000Y-94717000D03*
X95763000Y-94717000D03*
X95763000Y-88417000D03*
X94483000Y-88417000D03*
X93223000Y-88417000D03*
X91953000Y-88417000D03*
X90673000Y-88417000D03*
X89403000Y-88417000D03*
X88143000Y-88417000D03*
X86863000Y-88417000D03*
X109469000Y-94717000D03*
X110749000Y-94717000D03*
X112009000Y-94717000D03*
X113279000Y-94717000D03*
X114559000Y-94717000D03*
X115829000Y-94717000D03*
X117089000Y-94717000D03*
X118369000Y-94717000D03*
X118369000Y-88417000D03*
X117089000Y-88417000D03*
X115829000Y-88417000D03*
X114559000Y-88417000D03*
X113279000Y-88417000D03*
X112009000Y-88417000D03*
X110749000Y-88417000D03*
X109469000Y-88417000D03*
M02*
