G04 #@! TF.FileFunction,Soldermask,Top*
%FSLAX46Y46*%
G04 Gerber Fmt 4.6, Leading zero omitted, Abs format (unit mm)*
G04 Created by KiCad (PCBNEW 4.0.7) date 06/28/18 00:34:14*
%MOMM*%
%LPD*%
G01*
G04 APERTURE LIST*
%ADD10C,0.100000*%
%ADD11C,2.600000*%
%ADD12R,1.150000X1.600000*%
%ADD13C,2.000000*%
%ADD14R,2.000000X3.400000*%
%ADD15R,1.600000X1.150000*%
%ADD16C,2.650000*%
%ADD17C,2.680000*%
%ADD18R,3.400000X2.000000*%
%ADD19R,1.300000X1.600000*%
%ADD20R,2.400000X1.000000*%
%ADD21R,2.100000X2.100000*%
%ADD22O,2.100000X2.100000*%
%ADD23R,2.000000X2.800000*%
%ADD24O,2.000000X2.800000*%
%ADD25R,1.600000X2.100000*%
%ADD26O,1.600000X2.100000*%
%ADD27R,1.400000X1.400000*%
%ADD28O,1.400000X1.400000*%
%ADD29R,1.600000X1.300000*%
%ADD30R,1.900000X1.000000*%
%ADD31R,1.700000X1.200000*%
%ADD32R,1.200000X1.700000*%
%ADD33C,1.900000*%
G04 APERTURE END LIST*
D10*
D11*
X168402000Y-81026000D03*
X168402000Y-43307000D03*
X73406000Y-43307000D03*
D12*
X85471000Y-104587000D03*
X85471000Y-106487000D03*
X100711000Y-106360000D03*
X100711000Y-104460000D03*
D13*
X140081000Y-62484000D03*
X145081000Y-62484000D03*
D14*
X159512000Y-108880000D03*
X159512000Y-104480000D03*
D15*
X101285000Y-110490000D03*
X103185000Y-110490000D03*
D16*
X103251000Y-105537000D03*
D17*
X109626000Y-105537000D03*
D15*
X84770000Y-112522000D03*
X82870000Y-112522000D03*
D12*
X93091000Y-117790000D03*
X93091000Y-115890000D03*
D15*
X124267000Y-56007000D03*
X122367000Y-56007000D03*
X101158000Y-117856000D03*
X103058000Y-117856000D03*
D13*
X77597000Y-84328000D03*
X77597000Y-89328000D03*
D12*
X148590000Y-90490000D03*
X148590000Y-92390000D03*
D13*
X156972000Y-84328000D03*
X161972000Y-84328000D03*
D15*
X116525000Y-111379000D03*
X118425000Y-111379000D03*
X96014000Y-67246500D03*
X97914000Y-67246500D03*
X96014000Y-65722500D03*
X97914000Y-65722500D03*
X133035000Y-111379000D03*
X134935000Y-111379000D03*
D13*
X152781000Y-99060000D03*
X152781000Y-104060000D03*
D18*
X138643000Y-103378000D03*
X143043000Y-103378000D03*
D13*
X136525000Y-107569000D03*
X141525000Y-107569000D03*
D19*
X149988000Y-88392000D03*
X153288000Y-88392000D03*
D20*
X135508000Y-64897000D03*
X135508000Y-66167000D03*
X135508000Y-67437000D03*
X135508000Y-68707000D03*
X135508000Y-69977000D03*
X135508000Y-71247000D03*
X135508000Y-72517000D03*
X135508000Y-73787000D03*
X135508000Y-75057000D03*
X135508000Y-76327000D03*
X135508000Y-77597000D03*
X135508000Y-78867000D03*
X144908000Y-78867000D03*
X144908000Y-77597000D03*
X144908000Y-76327000D03*
X144908000Y-75057000D03*
X144908000Y-73787000D03*
X144908000Y-72517000D03*
X144908000Y-71247000D03*
X144908000Y-69977000D03*
X144908000Y-68707000D03*
X144908000Y-67437000D03*
X144908000Y-66167000D03*
X144908000Y-64897000D03*
D21*
X84074000Y-53594000D03*
D22*
X86614000Y-53594000D03*
X89154000Y-53594000D03*
X91694000Y-53594000D03*
X94234000Y-53594000D03*
X96774000Y-53594000D03*
X99314000Y-53594000D03*
X101854000Y-53594000D03*
X104394000Y-53594000D03*
X106934000Y-53594000D03*
X109474000Y-53594000D03*
X112014000Y-53594000D03*
X114554000Y-53594000D03*
X117094000Y-53594000D03*
X119634000Y-53594000D03*
X122174000Y-53594000D03*
X124714000Y-53594000D03*
X127254000Y-53594000D03*
X129794000Y-53594000D03*
X132334000Y-53594000D03*
X134874000Y-53594000D03*
X137414000Y-53594000D03*
X139954000Y-53594000D03*
X142494000Y-53594000D03*
X145034000Y-53594000D03*
X147574000Y-53594000D03*
X150114000Y-53594000D03*
X152654000Y-53594000D03*
X155194000Y-53594000D03*
X157734000Y-53594000D03*
D21*
X84074000Y-48387000D03*
D22*
X86614000Y-48387000D03*
X89154000Y-48387000D03*
X91694000Y-48387000D03*
X94234000Y-48387000D03*
X96774000Y-48387000D03*
X99314000Y-48387000D03*
X101854000Y-48387000D03*
X104394000Y-48387000D03*
X106934000Y-48387000D03*
X109474000Y-48387000D03*
X112014000Y-48387000D03*
X114554000Y-48387000D03*
X117094000Y-48387000D03*
X119634000Y-48387000D03*
X122174000Y-48387000D03*
X124714000Y-48387000D03*
X127254000Y-48387000D03*
X129794000Y-48387000D03*
X132334000Y-48387000D03*
X134874000Y-48387000D03*
X137414000Y-48387000D03*
X139954000Y-48387000D03*
X142494000Y-48387000D03*
X145034000Y-48387000D03*
X147574000Y-48387000D03*
X150114000Y-48387000D03*
X152654000Y-48387000D03*
X155194000Y-48387000D03*
X157734000Y-48387000D03*
D23*
X128905000Y-84201000D03*
D24*
X80645000Y-99441000D03*
X126365000Y-84201000D03*
X83185000Y-99441000D03*
X123825000Y-84201000D03*
X85725000Y-99441000D03*
X121285000Y-84201000D03*
X88265000Y-99441000D03*
X118745000Y-84201000D03*
X90805000Y-99441000D03*
X116205000Y-84201000D03*
X93345000Y-99441000D03*
X113665000Y-84201000D03*
X95885000Y-99441000D03*
X111125000Y-84201000D03*
X98425000Y-99441000D03*
X108585000Y-84201000D03*
X100965000Y-99441000D03*
X106045000Y-84201000D03*
X103505000Y-99441000D03*
X103505000Y-84201000D03*
X106045000Y-99441000D03*
X100965000Y-84201000D03*
X108585000Y-99441000D03*
X98425000Y-84201000D03*
X111125000Y-99441000D03*
X95885000Y-84201000D03*
X113665000Y-99441000D03*
X93345000Y-84201000D03*
X116205000Y-99441000D03*
X90805000Y-84201000D03*
X118745000Y-99441000D03*
X88265000Y-84201000D03*
X121285000Y-99441000D03*
X85725000Y-84201000D03*
X123825000Y-99441000D03*
X83185000Y-84201000D03*
X126365000Y-99441000D03*
X80645000Y-84201000D03*
X128905000Y-99441000D03*
D20*
X135508000Y-83947000D03*
X135508000Y-85217000D03*
X135508000Y-86487000D03*
X135508000Y-87757000D03*
X135508000Y-89027000D03*
X135508000Y-90297000D03*
X135508000Y-91567000D03*
X135508000Y-92837000D03*
X135508000Y-94107000D03*
X135508000Y-95377000D03*
X135508000Y-96647000D03*
X135508000Y-97917000D03*
X144908000Y-97917000D03*
X144908000Y-96647000D03*
X144908000Y-95377000D03*
X144908000Y-94107000D03*
X144908000Y-92837000D03*
X144908000Y-91567000D03*
X144908000Y-90297000D03*
X144908000Y-89027000D03*
X144908000Y-87757000D03*
X144908000Y-86487000D03*
X144908000Y-85217000D03*
X144908000Y-83947000D03*
D25*
X108331000Y-114046000D03*
D26*
X110331000Y-114046000D03*
X112331000Y-114046000D03*
X114331000Y-114046000D03*
X116331000Y-114046000D03*
D23*
X128842000Y-63055500D03*
D24*
X80582000Y-78295500D03*
X126302000Y-63055500D03*
X83122000Y-78295500D03*
X123762000Y-63055500D03*
X85662000Y-78295500D03*
X121222000Y-63055500D03*
X88202000Y-78295500D03*
X118682000Y-63055500D03*
X90742000Y-78295500D03*
X116142000Y-63055500D03*
X93282000Y-78295500D03*
X113602000Y-63055500D03*
X95822000Y-78295500D03*
X111062000Y-63055500D03*
X98362000Y-78295500D03*
X108522000Y-63055500D03*
X100902000Y-78295500D03*
X105982000Y-63055500D03*
X103442000Y-78295500D03*
X103442000Y-63055500D03*
X105982000Y-78295500D03*
X100902000Y-63055500D03*
X108522000Y-78295500D03*
X98362000Y-63055500D03*
X111062000Y-78295500D03*
X95822000Y-63055500D03*
X113602000Y-78295500D03*
X93282000Y-63055500D03*
X116142000Y-78295500D03*
X90742000Y-63055500D03*
X118682000Y-78295500D03*
X88202000Y-63055500D03*
X121222000Y-78295500D03*
X85662000Y-63055500D03*
X123762000Y-78295500D03*
X83122000Y-63055500D03*
X126302000Y-78295500D03*
X80582000Y-63055500D03*
X128842000Y-78295500D03*
D25*
X122809000Y-114046000D03*
D26*
X124809000Y-114046000D03*
X126809000Y-114046000D03*
X128809000Y-114046000D03*
X130809000Y-114046000D03*
X132809000Y-114046000D03*
D21*
X73533000Y-103886000D03*
D22*
X73533000Y-106426000D03*
D21*
X73533000Y-63246000D03*
D22*
X73533000Y-65786000D03*
D21*
X73533000Y-75438000D03*
D22*
X73533000Y-77978000D03*
D25*
X139319000Y-114046000D03*
D26*
X141319000Y-114046000D03*
X143319000Y-114046000D03*
X145319000Y-114046000D03*
X147319000Y-114046000D03*
X149319000Y-114046000D03*
X151319000Y-114046000D03*
X153319000Y-114046000D03*
X155319000Y-114046000D03*
X157319000Y-114046000D03*
X159319000Y-114046000D03*
X161319000Y-114046000D03*
X163319000Y-114046000D03*
X165319000Y-114046000D03*
X167319000Y-114046000D03*
D21*
X73533000Y-55118000D03*
D22*
X73533000Y-57658000D03*
D21*
X168021000Y-57023000D03*
D22*
X168021000Y-59563000D03*
D15*
X82870000Y-115189000D03*
X84770000Y-115189000D03*
D27*
X147066000Y-58039000D03*
D28*
X147066000Y-56769000D03*
D27*
X150114000Y-58039000D03*
D28*
X150114000Y-56769000D03*
D27*
X150114000Y-45466000D03*
D28*
X150114000Y-44196000D03*
D27*
X152654000Y-58039000D03*
D28*
X152654000Y-56769000D03*
D27*
X152654000Y-45466000D03*
D28*
X152654000Y-44196000D03*
D27*
X155194000Y-58039000D03*
D28*
X155194000Y-56769000D03*
D27*
X155194000Y-45466000D03*
D28*
X155194000Y-44196000D03*
D27*
X157861000Y-45466000D03*
D28*
X157861000Y-44196000D03*
D21*
X89662000Y-116840000D03*
D22*
X89662000Y-114300000D03*
X89662000Y-111760000D03*
D21*
X96774000Y-116840000D03*
D22*
X96774000Y-114300000D03*
X96774000Y-111760000D03*
D21*
X77152000Y-72961000D03*
D22*
X77152000Y-75501000D03*
X77152000Y-78041000D03*
D19*
X93091000Y-110914000D03*
X93091000Y-113114000D03*
D29*
X103335000Y-114173000D03*
X101135000Y-114173000D03*
D19*
X79883000Y-115359000D03*
X79883000Y-117559000D03*
D29*
X84793000Y-117856000D03*
X82593000Y-117856000D03*
X152357000Y-90297000D03*
X150157000Y-90297000D03*
D19*
X77152000Y-66909000D03*
X77152000Y-69109000D03*
X77152000Y-64663500D03*
X77152000Y-62463500D03*
X148971000Y-98849000D03*
X148971000Y-101049000D03*
X145669000Y-101135000D03*
X145669000Y-103335000D03*
D29*
X147785000Y-106807000D03*
X145585000Y-106807000D03*
X153246000Y-106807000D03*
X151046000Y-106807000D03*
D19*
X136144000Y-103040000D03*
X136144000Y-105240000D03*
D29*
X147785000Y-109982000D03*
X145585000Y-109982000D03*
X153246000Y-109982000D03*
X151046000Y-109982000D03*
D21*
X166243000Y-106553000D03*
D22*
X166243000Y-109093000D03*
D30*
X153111000Y-72136000D03*
X153111000Y-70866000D03*
X153111000Y-69596000D03*
X153111000Y-68326000D03*
X153111000Y-67056000D03*
X153111000Y-65786000D03*
X153111000Y-73406000D03*
X153111000Y-74676000D03*
X153111000Y-75946000D03*
X153111000Y-77216000D03*
X162611000Y-77216000D03*
X162611000Y-75946000D03*
X162611000Y-74676000D03*
X162611000Y-73406000D03*
X162611000Y-72136000D03*
X162611000Y-70866000D03*
X162611000Y-69596000D03*
X162611000Y-68326000D03*
X162611000Y-67056000D03*
X162611000Y-65786000D03*
D31*
X156362000Y-86736000D03*
X156362000Y-88016000D03*
X156362000Y-89276000D03*
X156362000Y-90546000D03*
X156362000Y-91826000D03*
X156362000Y-93096000D03*
X156362000Y-94356000D03*
X156362000Y-95636000D03*
X162662000Y-95636000D03*
X162662000Y-94356000D03*
X162662000Y-93096000D03*
X162662000Y-91826000D03*
X162662000Y-90546000D03*
X162662000Y-89276000D03*
X162662000Y-88016000D03*
X162662000Y-86736000D03*
D32*
X86863000Y-94717000D03*
X88143000Y-94717000D03*
X89403000Y-94717000D03*
X90673000Y-94717000D03*
X91953000Y-94717000D03*
X93223000Y-94717000D03*
X94483000Y-94717000D03*
X95763000Y-94717000D03*
X95763000Y-88417000D03*
X94483000Y-88417000D03*
X93223000Y-88417000D03*
X91953000Y-88417000D03*
X90673000Y-88417000D03*
X89403000Y-88417000D03*
X88143000Y-88417000D03*
X86863000Y-88417000D03*
X109469000Y-94717000D03*
X110749000Y-94717000D03*
X112009000Y-94717000D03*
X113279000Y-94717000D03*
X114559000Y-94717000D03*
X115829000Y-94717000D03*
X117089000Y-94717000D03*
X118369000Y-94717000D03*
X118369000Y-88417000D03*
X117089000Y-88417000D03*
X115829000Y-88417000D03*
X114559000Y-88417000D03*
X113279000Y-88417000D03*
X112009000Y-88417000D03*
X110749000Y-88417000D03*
X109469000Y-88417000D03*
D33*
X90805000Y-105410000D03*
X95685000Y-105410000D03*
D11*
X73533000Y-118237000D03*
M02*
