G04 #@! TF.FileFunction,Soldermask,Bot*
%FSLAX46Y46*%
G04 Gerber Fmt 4.6, Leading zero omitted, Abs format (unit mm)*
G04 Created by KiCad (PCBNEW 4.0.7) date 06/28/18 00:34:14*
%MOMM*%
%LPD*%
G01*
G04 APERTURE LIST*
%ADD10C,0.100000*%
%ADD11C,2.600000*%
%ADD12C,2.000000*%
%ADD13C,2.650000*%
%ADD14C,2.680000*%
%ADD15R,2.100000X2.100000*%
%ADD16O,2.100000X2.100000*%
%ADD17R,2.000000X2.800000*%
%ADD18O,2.000000X2.800000*%
%ADD19R,1.600000X2.100000*%
%ADD20O,1.600000X2.100000*%
%ADD21R,1.400000X1.400000*%
%ADD22O,1.400000X1.400000*%
%ADD23C,1.900000*%
G04 APERTURE END LIST*
D10*
D11*
X168402000Y-81026000D03*
X168402000Y-43307000D03*
X73406000Y-43307000D03*
D12*
X140081000Y-62484000D03*
X145081000Y-62484000D03*
D13*
X103251000Y-105537000D03*
D14*
X109626000Y-105537000D03*
D12*
X77597000Y-84328000D03*
X77597000Y-89328000D03*
X156972000Y-84328000D03*
X161972000Y-84328000D03*
X152781000Y-99060000D03*
X152781000Y-104060000D03*
X136525000Y-107569000D03*
X141525000Y-107569000D03*
D15*
X84074000Y-53594000D03*
D16*
X86614000Y-53594000D03*
X89154000Y-53594000D03*
X91694000Y-53594000D03*
X94234000Y-53594000D03*
X96774000Y-53594000D03*
X99314000Y-53594000D03*
X101854000Y-53594000D03*
X104394000Y-53594000D03*
X106934000Y-53594000D03*
X109474000Y-53594000D03*
X112014000Y-53594000D03*
X114554000Y-53594000D03*
X117094000Y-53594000D03*
X119634000Y-53594000D03*
X122174000Y-53594000D03*
X124714000Y-53594000D03*
X127254000Y-53594000D03*
X129794000Y-53594000D03*
X132334000Y-53594000D03*
X134874000Y-53594000D03*
X137414000Y-53594000D03*
X139954000Y-53594000D03*
X142494000Y-53594000D03*
X145034000Y-53594000D03*
X147574000Y-53594000D03*
X150114000Y-53594000D03*
X152654000Y-53594000D03*
X155194000Y-53594000D03*
X157734000Y-53594000D03*
D15*
X84074000Y-48387000D03*
D16*
X86614000Y-48387000D03*
X89154000Y-48387000D03*
X91694000Y-48387000D03*
X94234000Y-48387000D03*
X96774000Y-48387000D03*
X99314000Y-48387000D03*
X101854000Y-48387000D03*
X104394000Y-48387000D03*
X106934000Y-48387000D03*
X109474000Y-48387000D03*
X112014000Y-48387000D03*
X114554000Y-48387000D03*
X117094000Y-48387000D03*
X119634000Y-48387000D03*
X122174000Y-48387000D03*
X124714000Y-48387000D03*
X127254000Y-48387000D03*
X129794000Y-48387000D03*
X132334000Y-48387000D03*
X134874000Y-48387000D03*
X137414000Y-48387000D03*
X139954000Y-48387000D03*
X142494000Y-48387000D03*
X145034000Y-48387000D03*
X147574000Y-48387000D03*
X150114000Y-48387000D03*
X152654000Y-48387000D03*
X155194000Y-48387000D03*
X157734000Y-48387000D03*
D17*
X128905000Y-84201000D03*
D18*
X80645000Y-99441000D03*
X126365000Y-84201000D03*
X83185000Y-99441000D03*
X123825000Y-84201000D03*
X85725000Y-99441000D03*
X121285000Y-84201000D03*
X88265000Y-99441000D03*
X118745000Y-84201000D03*
X90805000Y-99441000D03*
X116205000Y-84201000D03*
X93345000Y-99441000D03*
X113665000Y-84201000D03*
X95885000Y-99441000D03*
X111125000Y-84201000D03*
X98425000Y-99441000D03*
X108585000Y-84201000D03*
X100965000Y-99441000D03*
X106045000Y-84201000D03*
X103505000Y-99441000D03*
X103505000Y-84201000D03*
X106045000Y-99441000D03*
X100965000Y-84201000D03*
X108585000Y-99441000D03*
X98425000Y-84201000D03*
X111125000Y-99441000D03*
X95885000Y-84201000D03*
X113665000Y-99441000D03*
X93345000Y-84201000D03*
X116205000Y-99441000D03*
X90805000Y-84201000D03*
X118745000Y-99441000D03*
X88265000Y-84201000D03*
X121285000Y-99441000D03*
X85725000Y-84201000D03*
X123825000Y-99441000D03*
X83185000Y-84201000D03*
X126365000Y-99441000D03*
X80645000Y-84201000D03*
X128905000Y-99441000D03*
D19*
X108331000Y-114046000D03*
D20*
X110331000Y-114046000D03*
X112331000Y-114046000D03*
X114331000Y-114046000D03*
X116331000Y-114046000D03*
D17*
X128842000Y-63055500D03*
D18*
X80582000Y-78295500D03*
X126302000Y-63055500D03*
X83122000Y-78295500D03*
X123762000Y-63055500D03*
X85662000Y-78295500D03*
X121222000Y-63055500D03*
X88202000Y-78295500D03*
X118682000Y-63055500D03*
X90742000Y-78295500D03*
X116142000Y-63055500D03*
X93282000Y-78295500D03*
X113602000Y-63055500D03*
X95822000Y-78295500D03*
X111062000Y-63055500D03*
X98362000Y-78295500D03*
X108522000Y-63055500D03*
X100902000Y-78295500D03*
X105982000Y-63055500D03*
X103442000Y-78295500D03*
X103442000Y-63055500D03*
X105982000Y-78295500D03*
X100902000Y-63055500D03*
X108522000Y-78295500D03*
X98362000Y-63055500D03*
X111062000Y-78295500D03*
X95822000Y-63055500D03*
X113602000Y-78295500D03*
X93282000Y-63055500D03*
X116142000Y-78295500D03*
X90742000Y-63055500D03*
X118682000Y-78295500D03*
X88202000Y-63055500D03*
X121222000Y-78295500D03*
X85662000Y-63055500D03*
X123762000Y-78295500D03*
X83122000Y-63055500D03*
X126302000Y-78295500D03*
X80582000Y-63055500D03*
X128842000Y-78295500D03*
D19*
X122809000Y-114046000D03*
D20*
X124809000Y-114046000D03*
X126809000Y-114046000D03*
X128809000Y-114046000D03*
X130809000Y-114046000D03*
X132809000Y-114046000D03*
D15*
X73533000Y-103886000D03*
D16*
X73533000Y-106426000D03*
D15*
X73533000Y-63246000D03*
D16*
X73533000Y-65786000D03*
D15*
X73533000Y-75438000D03*
D16*
X73533000Y-77978000D03*
D19*
X139319000Y-114046000D03*
D20*
X141319000Y-114046000D03*
X143319000Y-114046000D03*
X145319000Y-114046000D03*
X147319000Y-114046000D03*
X149319000Y-114046000D03*
X151319000Y-114046000D03*
X153319000Y-114046000D03*
X155319000Y-114046000D03*
X157319000Y-114046000D03*
X159319000Y-114046000D03*
X161319000Y-114046000D03*
X163319000Y-114046000D03*
X165319000Y-114046000D03*
X167319000Y-114046000D03*
D15*
X73533000Y-55118000D03*
D16*
X73533000Y-57658000D03*
D15*
X168021000Y-57023000D03*
D16*
X168021000Y-59563000D03*
D21*
X147066000Y-58039000D03*
D22*
X147066000Y-56769000D03*
D21*
X150114000Y-58039000D03*
D22*
X150114000Y-56769000D03*
D21*
X150114000Y-45466000D03*
D22*
X150114000Y-44196000D03*
D21*
X152654000Y-58039000D03*
D22*
X152654000Y-56769000D03*
D21*
X152654000Y-45466000D03*
D22*
X152654000Y-44196000D03*
D21*
X155194000Y-58039000D03*
D22*
X155194000Y-56769000D03*
D21*
X155194000Y-45466000D03*
D22*
X155194000Y-44196000D03*
D21*
X157861000Y-45466000D03*
D22*
X157861000Y-44196000D03*
D15*
X89662000Y-116840000D03*
D16*
X89662000Y-114300000D03*
X89662000Y-111760000D03*
D15*
X96774000Y-116840000D03*
D16*
X96774000Y-114300000D03*
X96774000Y-111760000D03*
D15*
X77152000Y-72961000D03*
D16*
X77152000Y-75501000D03*
X77152000Y-78041000D03*
D15*
X166243000Y-106553000D03*
D16*
X166243000Y-109093000D03*
D23*
X90805000Y-105410000D03*
X95685000Y-105410000D03*
D11*
X73533000Y-118237000D03*
M02*
