M48
;DRILL file {KiCad 4.0.7} date 06/28/18 00:34:16
;FORMAT={3:3/ absolute / metric / suppress leading zeros}
FMAT,2
METRIC,TZ
T1C0.400
T2C0.650
T3C0.750
T4C0.800
T5C1.000
T6C1.520
T7C1.530
T8C2.200
%
G90
G05
M71
T1
X89660Y-90302
X90588Y-96117
X91313Y-87217
X91345Y-92105
X92362Y-92222
X92438Y-100908
X92896Y-93571
X94399Y-93467
X95524Y-93568
X97863Y-94782
X105138Y-97975
X106728Y-109816
X108120Y-65767
X109557Y-95867
X111557Y-90378
X112237Y-95867
X118099Y-91735
X119172Y-55600
X119515Y-65425
X121133Y-75056
X121944Y-75446
X127432Y-88046
X127904Y-109238
X128808Y-89124
X129281Y-86001
X130012Y-74886
X131281Y-85811
X131927Y-74118
X132214Y-75428
X132701Y-96269
X133613Y-96329
X134159Y-79852
X134252Y-81310
X135036Y-80118
X135407Y-81788
X136231Y-81780
X137008Y-66293
X137008Y-94173
X137713Y-71169
X138356Y-70582
X138793Y-72329
X139091Y-75122
X139441Y-66988
X140294Y-87332
X140492Y-88210
X140619Y-84938
X140837Y-85812
X141708Y-69136
X142105Y-86745
X143147Y-74748
X143153Y-73459
X144719Y-101186
X145440Y-83147
X146703Y-69856
X146738Y-75994
X148751Y-64620
X148789Y-77960
X150874Y-74182
X151511Y-68594
X151851Y-75285
X151884Y-72917
X154458Y-68564
X154479Y-74676
X155212Y-87913
X155474Y-66788
T2
X147066Y-56769
X147066Y-58039
X150114Y-44196
X150114Y-45466
X150114Y-56769
X150114Y-58039
X152654Y-44196
X152654Y-45466
X152654Y-56769
X152654Y-58039
X155194Y-44196
X155194Y-45466
X155194Y-56769
X155194Y-58039
X157861Y-44196
X157861Y-45466
T3
X108331Y-114046
X110331Y-114046
X112331Y-114046
X114331Y-114046
X116331Y-114046
X122809Y-114046
X124809Y-114046
X126809Y-114046
X128809Y-114046
X130809Y-114046
X132809Y-114046
X139319Y-114046
X141319Y-114046
X143319Y-114046
X145319Y-114046
X147319Y-114046
X149319Y-114046
X151319Y-114046
X153319Y-114046
X155319Y-114046
X157319Y-114046
X159319Y-114046
X161319Y-114046
X163319Y-114046
X165319Y-114046
X167319Y-114046
T4
X77597Y-84328
X77597Y-89328
X80582Y-63055
X80582Y-78296
X80645Y-84201
X80645Y-99441
X83122Y-63055
X83122Y-78296
X83185Y-84201
X83185Y-99441
X85662Y-63055
X85662Y-78296
X85725Y-84201
X85725Y-99441
X88202Y-63055
X88202Y-78296
X88265Y-84201
X88265Y-99441
X90742Y-63055
X90742Y-78296
X90805Y-84201
X90805Y-99441
X90805Y-105410
X93282Y-63055
X93282Y-78296
X93345Y-84201
X93345Y-99441
X95685Y-105410
X95822Y-63055
X95822Y-78296
X95885Y-84201
X95885Y-99441
X98362Y-63055
X98362Y-78296
X98425Y-84201
X98425Y-99441
X100902Y-63055
X100902Y-78296
X100965Y-84201
X100965Y-99441
X103442Y-63055
X103442Y-78296
X103505Y-84201
X103505Y-99441
X105982Y-63055
X105982Y-78296
X106045Y-84201
X106045Y-99441
X108522Y-63055
X108522Y-78296
X108585Y-84201
X108585Y-99441
X111062Y-63055
X111062Y-78296
X111125Y-84201
X111125Y-99441
X113602Y-63055
X113602Y-78296
X113665Y-84201
X113665Y-99441
X116142Y-63055
X116142Y-78296
X116205Y-84201
X116205Y-99441
X118682Y-63055
X118682Y-78296
X118745Y-84201
X118745Y-99441
X121222Y-63055
X121222Y-78296
X121285Y-84201
X121285Y-99441
X123762Y-63055
X123762Y-78296
X123825Y-84201
X123825Y-99441
X126302Y-63055
X126302Y-78296
X126365Y-84201
X126365Y-99441
X128842Y-63055
X128842Y-78296
X128905Y-84201
X128905Y-99441
X136525Y-107569
X140081Y-62484
X141525Y-107569
X145081Y-62484
X152781Y-99060
X152781Y-104060
X156972Y-84328
X161972Y-84328
T5
X73533Y-55118
X73533Y-57658
X73533Y-63246
X73533Y-65786
X73533Y-75438
X73533Y-77978
X73533Y-103886
X73533Y-106426
X77152Y-72961
X77152Y-75501
X77152Y-78041
X84074Y-48387
X84074Y-53594
X86614Y-48387
X86614Y-53594
X89154Y-48387
X89154Y-53594
X89662Y-111760
X89662Y-114300
X89662Y-116840
X91694Y-48387
X91694Y-53594
X94234Y-48387
X94234Y-53594
X96774Y-48387
X96774Y-53594
X96774Y-111760
X96774Y-114300
X96774Y-116840
X99314Y-48387
X99314Y-53594
X101854Y-48387
X101854Y-53594
X104394Y-48387
X104394Y-53594
X106934Y-48387
X106934Y-53594
X109474Y-48387
X109474Y-53594
X112014Y-48387
X112014Y-53594
X114554Y-48387
X114554Y-53594
X117094Y-48387
X117094Y-53594
X119634Y-48387
X119634Y-53594
X122174Y-48387
X122174Y-53594
X124714Y-48387
X124714Y-53594
X127254Y-48387
X127254Y-53594
X129794Y-48387
X129794Y-53594
X132334Y-48387
X132334Y-53594
X134874Y-48387
X134874Y-53594
X137414Y-48387
X137414Y-53594
X139954Y-48387
X139954Y-53594
X142494Y-48387
X142494Y-53594
X145034Y-48387
X145034Y-53594
X147574Y-48387
X147574Y-53594
X150114Y-48387
X150114Y-53594
X152654Y-48387
X152654Y-53594
X155194Y-48387
X155194Y-53594
X157734Y-48387
X157734Y-53594
X166243Y-106553
X166243Y-109093
X168021Y-57023
X168021Y-59563
T6
X103251Y-105537
T7
X109626Y-105537
T8
X73406Y-43307
X73533Y-118237
X168402Y-43307
X168402Y-81026
T0
M30
